<?xml version="1.0" encoding="utf-8"?>
<!-- Generator: Adobe Illustrator 26.5.0, SVG Export Plug-In . SVG Version: 6.00 Build 0)  -->
<svg version="1.1" id="Layer_1" xmlns="http://www.w3.org/2000/svg" xmlns:xlink="http://www.w3.org/1999/xlink" x="0px" y="0px"
	 viewBox="0 0 45.13 39.08" style="enable-background:new 0 0 45.13 39.08;" xml:space="preserve">
<style type="text/css">
	.st0{fill:none;stroke:#D54699;stroke-width:0.25;stroke-miterlimit:10;}
	.st1{fill:none;stroke:#D54699;stroke-miterlimit:10;}
</style>
<polygon class="st0" points="12.57,34.21 13.46,31.59 11.81,29.38 14.57,29.42 16.16,27.17 16.98,29.8 19.61,30.62 17.36,32.21 
	17.39,34.97 15.18,33.32 "/>
<polygon class="st0" points="4.89,24.55 5.78,21.94 4.13,19.73 6.88,19.76 8.48,17.51 9.29,20.14 11.93,20.96 9.68,22.55 
	9.71,25.31 7.5,23.66 "/>
<polygon class="st0" points="8.55,17.01 9.43,14.4 7.78,12.19 10.54,12.23 12.13,9.97 12.95,12.61 15.59,13.43 13.33,15.02 
	13.37,17.78 11.16,16.13 "/>
<polygon class="st0" points="12.3,24.04 13.18,21.43 11.53,19.22 14.29,19.26 15.88,17.01 16.7,19.64 19.34,20.46 17.08,22.05 
	17.12,24.81 14.91,23.16 "/>
<polygon class="st0" points="12.18,8.79 13.06,6.18 11.41,3.97 14.17,4 15.76,1.75 16.58,4.38 19.22,5.2 16.96,6.8 17,9.55 
	14.79,7.9 "/>
<polygon class="st0" points="19.04,28.96 19.93,26.35 18.28,24.14 21.04,24.18 22.63,21.92 23.45,24.56 26.08,25.38 23.83,26.97 
	23.87,29.73 21.66,28.08 "/>
<polygon class="st0" points="18.77,18.8 19.65,16.19 18.01,13.98 20.76,14.01 22.35,11.76 23.17,14.4 25.81,15.21 23.56,16.81 
	23.59,19.56 21.38,17.91 "/>
<polygon class="st0" points="20.47,11.13 21.36,8.51 19.71,6.3 22.46,6.34 24.06,4.09 24.87,6.72 27.51,7.54 25.26,9.13 
	25.29,11.89 23.08,10.24 "/>
<polygon class="st0" points="27.74,32.66 28.63,30.05 26.98,27.84 29.74,27.87 31.33,25.62 32.15,28.25 34.78,29.07 32.53,30.66 
	32.57,33.42 30.35,31.77 "/>
<polygon class="st0" points="21.23,36.61 22.12,34 20.47,31.79 23.22,31.82 24.82,29.57 25.64,32.2 28.27,33.02 26.02,34.61 
	26.05,37.37 23.84,35.72 "/>
<polygon class="st0" points="25.57,23.81 26.45,21.2 24.8,18.99 27.56,19.03 29.15,16.77 29.97,19.41 32.6,20.23 30.35,21.82 
	30.39,24.58 28.18,22.93 "/>
<polygon class="st0" points="28.15,9.7 29.03,7.09 27.38,4.88 30.14,4.91 31.73,2.66 32.55,5.29 35.18,6.11 32.93,7.71 32.97,10.46 
	30.76,8.81 "/>
<polygon class="st0" points="31.53,17.4 32.42,14.79 30.77,12.58 33.52,12.61 35.12,10.36 35.93,12.99 38.57,13.81 36.32,15.41 
	36.35,18.16 34.14,16.51 "/>
<polygon class="st0" points="33.51,26.18 34.39,23.57 32.74,21.36 35.5,21.39 37.09,19.14 37.91,21.78 40.54,22.59 38.29,24.19 
	38.33,26.94 36.12,25.29 "/>
<polygon class="st1" points="33.56,0.5 11.57,0.5 0.58,19.54 11.57,38.58 33.56,38.58 44.55,19.54 "/>
</svg>
